<svg xmlns="http://www.w3.org/2000/svg" xmlns:xlink="http://www.w3.org/1999/xlink" fill="none" version="1.1" width="22" height="22" viewBox="0 0 22 22"><g><path d="M11,2C6.02944,2,2,6.02944,2,11C2,15.9706,6.02944,20,11,20C15.9706,20,20,15.9706,20,11C20,6.02944,15.9706,2,11,2C11,2,11,2,11,2ZM0,11C0,4.92487,4.92487,0,11,0C17.0751,0,22,4.92487,22,11C22,17.0751,17.0751,22,11,22C4.92487,22,0,17.0751,0,11C0,11,0,11,0,11ZM11,4C11.5523,4,12,4.44772,12,5C12,5,12,10.382,12,10.382C12,10.382,15.4472,12.1056,15.4472,12.1056C15.9412,12.3526,16.1414,12.9532,15.8944,13.4472C15.6474,13.9412,15.0468,14.1414,14.5528,13.8944C14.5528,13.8944,10.5528,11.8944,10.5528,11.8944C10.214,11.725,10,11.3788,10,11C10,11,10,5,10,5C10,4.44772,10.4477,4,11,4C11,4,11,4,11,4Z" fill-rule="evenodd" fill="#000000" fill-opacity="1"/></g></svg>