<?xml version="1.0" standalone="no"?><!DOCTYPE svg PUBLIC "-//W3C//DTD SVG 1.1//EN" "http://www.w3.org/Graphics/SVG/1.1/DTD/svg11.dtd"><svg t="1691676010719" class="icon" viewBox="0 0 1329 1024" version="1.1" xmlns="http://www.w3.org/2000/svg" p-id="13546" width="166.125" height="128" xmlns:xlink="http://www.w3.org/1999/xlink"><path d="M1036.572 951.784h-780.721c-62.416 0-113.411-47.899-115.072-107.38l-78.125-495.818v-2.735c0-60.873 51.662-110.396 115.164-110.396h14.961v-63.036c0-60.873 51.651-110.396 115.13-110.396h234.199c42.067 0 105.428 34.714 140.178 74.338h302.237c48.717 0 161.228 35.661 166.943 104.891 45.468 14.762 78.311 56.069 78.311 104.599v2.747l-78.137 495.807c-1.659 59.493-52.643 107.38-115.072 107.38zM136.887 343.559l78.008 495.070v2.747c0 21.109 18.374 38.279 40.957 38.279h780.721c22.582 0 40.957-17.17 40.957-38.279v-2.747l78.008-495.070c-1.274-20.046-19.146-35.989-40.932-35.989h-37.075v-59.903c-1.823-3.846-12.027-14.026-34.48-24.113-23.096-10.357-46.52-15.078-58.536-15.078h-341.532l-10.87-17.147c-17.953-28.368-70.714-57.191-90-57.191h-234.199c-22.593 0-40.968 17.182-40.968 38.279v135.152h-89.135c-21.775 0-39.647 15.942-40.921 36z" p-id="13547" fill="#bfbfbf"></path><path d="M100.875 306.542h1086.428v69.779h-1086.428z" p-id="13548" fill="#bfbfbf"></path></svg>