<svg xmlns="http://www.w3.org/2000/svg" xmlns:xlink="http://www.w3.org/1999/xlink" fill="none" version="1.1" width="24" height="24" viewBox="0 0 24 24"><defs><clipPath id="master_svg0_71_400"><rect x="0" y="0" width="24" height="24" rx="0"/></clipPath></defs><g clip-path="url(#master_svg0_71_400)"><g><path d="M17.777201953125,7.248467373046875C17.777201953125,3.645987373046875,14.933101953125,0.715057373046875,11.436871953125,0.715057373046875C7.941521953125,0.715057373046875,5.096911953125,3.645937373046875,5.096911953125,7.248467373046875C5.096911953125,9.705167373046875,6.420691953125,11.847257373046874,8.370551953125,12.962757373046875C4.545411953125,14.379057373046875,1.802001953125,18.152857373046874,1.802001953125,22.575957373046876C1.802001953125,22.967357373046877,2.110110953125,23.284957373046876,2.489704953125,23.284957373046876C2.870261953125,23.284957373046876,3.177851953125,22.967757373046876,3.177851953125,22.575957373046876C3.177851953125,17.726857373046876,7.006091953125,13.781557373046875,11.711561953125,13.781557373046875C11.769311953125,13.781557373046875,11.824401953125,13.772357373046875,11.877701953125,13.758557373046875C15.168201953125,13.524257373046876,17.777301953125,10.697957373046876,17.777201953125,7.248467373046875ZM11.436851953125,12.363957373046874C8.699871953125001,12.363957373046874,6.473211953125,10.069647373046875,6.473211953125,7.248497373046875C6.473211953125,4.427817373046874,8.699911953125,2.133427373046875,11.436851953125,2.133427373046875C14.174201953125,2.133427373046875,16.401001953125,4.4277673730468745,16.401001953125,7.248497373046875C16.401501953125,10.069647373046875,14.174301953125,12.363957373046874,11.436851953125,12.363957373046874ZM12.756401953125,16.068457373046876C12.756401953125,16.459457373046874,13.064801953125,16.777457373046875,13.444501953125,16.777457373046875L21.509701953125,16.777457373046875C21.890201953125,16.777457373046875,22.197801953125,16.459957373046876,22.197801953125,16.068457373046876C22.197801953125,15.677157373046875,21.890201953125,15.359557373046876,21.509701953125,15.359557373046876L13.444501953125,15.359557373046876C13.064901953125,15.359557373046876,12.756401953125,15.677057373046875,12.756401953125,16.068457373046876ZM21.509501953125,18.258757373046876L13.444401953125,18.258757373046876C13.064801953125,18.258757373046876,12.756201953125,18.575957373046876,12.756201953125,18.968157373046875C12.756201953125,19.359457373046876,13.064701953125,19.677057373046875,13.444401953125,19.677057373046875L21.509501953125,19.677057373046875C21.890101953125,19.677057373046875,22.197701953125,19.359957373046875,22.197701953125,18.968157373046875C22.197701953125,18.575857373046876,21.890101953125,18.258757373046876,21.509501953125,18.258757373046876ZM21.509501953125,21.512457373046875L13.444401953125,21.512457373046875C13.064801953125,21.512457373046875,12.756201953125,21.829657373046874,12.756201953125,22.221457373046874C12.756201953125,22.613257373046874,13.064701953125,22.930457373046874,13.444401953125,22.930457373046874L21.509501953125,22.930457373046874C21.890101953125,22.930457373046874,22.197701953125,22.613257373046874,22.197701953125,22.221457373046874C22.197701953125,21.829657373046874,21.890101953125,21.512457373046875,21.509501953125,21.512457373046875Z" fill="#272636" fill-opacity="1"/></g></g></svg>