<svg xmlns="http://www.w3.org/2000/svg" xmlns:xlink="http://www.w3.org/1999/xlink" fill="none" version="1.1" width="24" height="24" viewBox="0 0 24 24"><defs><clipPath id="master_svg0_34_7116"><rect x="0" y="0" width="24" height="24" rx="0"/></clipPath></defs><g clip-path="url(#master_svg0_34_7116)"><g><path d="M4.500864140625,14.79843896484375L4.500864140625,9.48568896484375C4.500864140625,5.35143896484375,7.858364140625,1.99993896484375,12.000114140625,1.99993896484375C16.141844140625,1.99993896484375,19.499344140625,5.35143896484375,19.499344140625,9.48568896484375L19.499344140625,14.79843896484375L20.919844140625,17.63473896484375C21.169344140625,18.13243896484375,20.806644140625,18.71793896484375,20.249144140625,18.71793896484375L3.7511101406250003,18.71793896484375C3.193610140625,18.71793896484375,2.831110140625,18.13243896484375,3.080360340625,17.63473896484375L4.500864140625,14.79843896484375ZM19.035844140625,17.22093896484375L18.078644140625002,15.30993896484375C18.026544140625,15.20603896484375,17.999344140625,15.09143896484375,17.999344140625,14.97523896484375L17.999344140625,9.48568896484375C17.999344140625,6.17818896484375,15.313344140625,3.49718896484375,12.000104140625,3.49718896484375C8.686854140625,3.49718896484375,6.000864140625,6.17818896484375,6.000864140625,9.48568896484375L6.000864140625,14.97493896484375C6.000864140625,15.09123896484375,5.973614140625,15.20573896484375,5.921614140625,15.30993896484375L4.964364140625,17.22073896484375L19.035844140625,17.22073896484375L19.035844140625,17.22093896484375ZM8.645864140625001,20.79093896484375C8.327284140625,20.52703896484375,8.283694140625,20.05443896484375,8.548614140625,19.73673896484375C8.813684140625,19.41873896484375,9.286054140625,19.37533896484375,9.604614140625,19.63973896484375C10.277414140625,20.19893896484375,11.125204140625,20.50433896484375,12.000114140625,20.50243896484375C12.874804140625,20.50423896484375,13.722444140625,20.19903896484375,14.395144140625,19.63993896484375C14.713644140625,19.37563896484375,15.186044140625,19.41903896484375,15.451144140625,19.73693896484375C15.715944140625,20.05473896484375,15.672244140625,20.52733896484375,15.353644140625,20.79123896484375C14.411544140625,21.57393896484375,13.224944140625,22.00163896484375,12.000114140625,21.99993896484375C10.758364140625,21.99993896484375,9.581364140625,21.56743896484375,8.645864140625001,20.79073896484375L8.645864140625001,20.79093896484375Z" fill="#000000" fill-opacity="1"/></g></g></svg>