<svg xmlns="http://www.w3.org/2000/svg" xmlns:xlink="http://www.w3.org/1999/xlink" fill="none" version="1.1" width="24" height="24" viewBox="0 0 24 24"><defs><clipPath id="master_svg0_71_396"><rect x="0" y="0" width="24" height="24" rx="0"/></clipPath></defs><g clip-path="url(#master_svg0_71_396)"><g><path d="M12.054008984375,22.47598720703125C10.697588984375,22.47598720703125,9.380208984374999,22.22068720703125,8.141068984375,21.71458720703125C6.943388984375,21.22798720703125,5.869338984375,20.53058720703125,4.946228984375,19.64188720703125C4.0231189843749995,18.75318720703125,3.298738984375,17.71748720703125,2.791810984375,16.56528720703125C2.267677984375,15.37228720703125,2.001708984375,14.10468720703125,2.001708984375,12.79798720703125C2.001708984375,11.23441720703125,2.399888984375,9.68217720703125,3.1524389843750003,8.30690720703125C3.879968984375,6.97832720703125,4.936808984375,5.81170720703125,6.209608984375,4.933527207031251C6.563188984375,4.68949720703125,7.054458984375,4.768597207031251,7.307138984375,5.10825720703125C7.559818984375,5.44793720703125,7.479258984375,5.92017720703125,7.125658984375,6.16268720703125C6.050018984375,6.90679720703125,5.157398984375,7.89042720703125,4.544118984375,9.011867207031251C3.900288984375,10.18753720703125,3.5740789843750003,11.46112720703125,3.5740789843750003,12.79798720703125C3.5740789843750003,14.97908720703125,4.4565089843750005,17.02988720703125,6.058618984375,18.57158720703125C7.659968984375,20.11408720703125,9.789328984375,20.96358720703125,12.054008984375,20.96358720703125C14.318008984375,20.96358720703125,16.448208984375,20.11408720703125,18.050308984375,18.57158720703125C19.652408984375,17.02988720703125,20.534008984375,14.97908720703125,20.534008984375,12.79798720703125C20.534008984375,11.46260720703125,20.208608984375,10.18675720703125,19.564008984375,9.011867207031251C18.950708984375,7.89117720703125,18.057308984375,6.90679720703125,16.981708984375,6.16415720703125C16.628908984375002,5.92167720703125,16.546708984375,5.4494372070312505,16.800208984375,5.10972720703125C17.053608984375,4.77007720703125,17.544208984375,4.69024720703125,17.896908984375003,4.935027207031251C19.170508984375,5.81320720703125,20.228908984375,6.97983720703125,20.955708984375,8.308387207031249C21.709008984375,9.68365720703125,22.107208984375,11.23589720703125,22.107208984375,12.79948720703125C22.107208984375,14.10618720703125,21.841208984375,15.37378720703125,21.316308984375,16.56748720703125C20.810208984375,17.71978720703125,20.085008984375,18.75538720703125,19.161908984375,19.64408720703125C18.238808984375,20.53278720703125,17.164708984375,21.22948720703125,15.967008984375,21.71828720703125C14.727108984375,22.22138720703125,13.410508984375,22.47598720703125,12.054108984375,22.47598720703125L12.054108984375,22.47598720703125L12.054008984375,22.47598720703125ZM12.290308984375,11.97398720703125C11.856148984375,11.97398720703125,11.504118984375,11.63658720703125,11.504118984375,11.21784720703125L11.504118984375,2.25382520703125C11.504118984375,1.83656720703125,11.856148984375,1.49688720703125,12.290308984375,1.49688720703125C12.724508984375,1.49688720703125,13.077308984375,1.83656720703125,13.077308984375,2.25382520703125L13.077308984375,11.21784720703125C13.077308984375,11.63658720703125,12.724508984375,11.97398720703125,12.290308984375,11.97398720703125Z" fill="#3D3D3D" fill-opacity="1"/></g></g></svg>