<svg t="1703145382600" class="icon" viewBox="0 0 1024 1024" version="1.1"
  xmlns="http://www.w3.org/2000/svg" p-id="1491" width="64" height="64">
  <path
    d="M512 960C264.576 960 64 759.424 64 512S264.576 64 512 64s448 200.576 448 448-200.576 448-448 448z m0-80c203.24 0 368-164.76 368-368S715.24 144 512 144 144 308.76 144 512s164.76 368 368 368z m174.37-226.032c14.377 16.773 12.435 42.025-4.338 56.402-16.773 14.377-42.025 12.435-56.402-4.338l-144-168A40 40 0 0 1 472 512V272c0-22.091 17.909-40 40-40s40 17.909 40 40v225.203l134.37 156.765z"
    fill="#333333" p-id="1492"></path>
</svg>