<?xml version="1.0" standalone="no"?><!DOCTYPE svg PUBLIC "-//W3C//DTD SVG 1.1//EN" "http://www.w3.org/Graphics/SVG/1.1/DTD/svg11.dtd"><svg t="1691672514132" class="icon" viewBox="0 0 1024 1024" version="1.1" xmlns="http://www.w3.org/2000/svg" p-id="4043" width="32" height="32" xmlns:xlink="http://www.w3.org/1999/xlink"><path d="M517.12 460.334545v-116.363636a23.272727 23.272727 0 0 0-46.545455 0v116.363636a93.090909 93.090909 0 0 0 93.09091 93.09091h116.363636a23.272727 23.272727 0 0 0 0-46.545455h-116.363636a39.563636 39.563636 0 0 1-11.869091-1.861818l247.854545-247.854546A23.272727 23.272727 0 0 0 768 224.349091L518.981818 472.203636a39.563636 39.563636 0 0 1-1.861818-11.869091z" p-id="4044"></path><path d="M861.090909 395.636364a23.272727 23.272727 0 0 0-23.272727 23.272727v372.363636a46.545455 46.545455 0 0 1-46.545455 46.545455H232.727273a46.545455 46.545455 0 0 1-46.545455-46.545455V232.727273a46.545455 46.545455 0 0 1 46.545455-46.545455h372.363636a23.272727 23.272727 0 0 0 0-46.545454H232.727273a93.090909 93.090909 0 0 0-93.090909 93.090909v558.545454a93.090909 93.090909 0 0 0 93.090909 93.090909h558.545454a93.090909 93.090909 0 0 0 93.090909-93.090909V418.909091a23.272727 23.272727 0 0 0-23.272727-23.272727z" p-id="4045"></path></svg>