<svg xmlns="http://www.w3.org/2000/svg" xmlns:xlink="http://www.w3.org/1999/xlink" fill="none" version="1.1" width="249" height="86" viewBox="0 0 249 86"><g><path d="M24.984,71.8L23.112,53.152L10.944,53.152L4.464,71.8L-3.24,71.8L18.432,13.624L26.064,13.624L32.544,71.8L24.984,71.8ZM16.416,37.24L13.248,46.312L22.392,46.312L21.528,37.96Q21.312,36.088,21.096,33.604Q20.88,31.12,20.7,28.636Q20.52,26.152,20.592,24.28Q20.088,26.152,19.332,28.6Q18.576,31.048,17.784,33.352Q16.992,35.656,16.416,37.24ZM41.112,86.2L34.128,86.2L42.48,27.88L49.032,27.88L48.744,31.264Q51.84,27.16,56.52,27.16Q61.992,27.16,64.44,32.74Q66.888,38.32,65.664,49.192Q64.872,55.96,62.892,61.252Q60.912,66.544,57.78,69.532Q54.648,72.52,50.472,72.52Q45.792,72.52,43.632,68.416L41.112,86.2ZM54.504,33.64Q52.128,33.64,50.328,35.476Q48.528,37.312,47.664,40.408L45.072,58.264Q44.928,61.648,46.26,63.844Q47.592,66.04,49.968,66.04Q52.416,66.04,54.036,63.808Q55.656,61.576,56.736,57.904Q57.816,54.232,58.392,49.912Q59.112,45.088,59.004,41.416Q58.896,37.744,57.852,35.692Q56.808,33.64,54.504,33.64ZM79.632,23.128Q77.616,23.128,76.608,21.76Q75.6,20.392,75.888,18.232Q76.248,16.144,77.472,14.74Q78.696,13.336,80.928,13.336Q83.016,13.336,84.024,14.74Q85.032,16.144,84.672,18.232Q84.384,20.392,83.124,21.76Q81.864,23.128,79.632,23.128ZM76.176,71.8L69.192,71.8L75.384,27.88L82.368,27.88L76.176,71.8ZM91.152,71.8L83.952,71.8L92.088,13.624L103.392,13.624Q112.176,13.624,116.28,18.0621Q120.384,22.4991,119.304,30.7251Q118.656,35.7764,115.92,39.3483Q113.184,42.9201,108.828,44.8326Q104.472,46.744,99,46.744L94.68,46.744L91.152,71.8ZM103.104,20.392L98.352,20.392L95.616,39.904L99,39.904Q104.976,39.904,107.964,37.3289Q110.952,34.7537,111.6,29.8218Q112.176,25.252,109.98,22.822Q107.784,20.392,103.104,20.392ZM125.568,71.8L118.584,71.8L127.152,11.32L134.136,11.32L125.568,71.8ZM158.4,71.8L151.776,71.8L152.136,67.84Q150.552,70,148.572,71.26Q146.592,72.52,144.432,72.52Q140.976,72.52,138.492,70.216Q136.008,67.912,135.072,62.692Q134.136,57.472,135.36,48.76Q136.872,37.816,140.868,32.524Q144.864,27.232,150.12,27.232Q154.944,27.232,157.104,31.624L157.608,27.88L164.592,27.88L158.4,71.8ZM142.488,49.552Q141.912,54.16,141.876,57.904Q141.84,61.648,142.848,63.844Q143.856,66.04,146.304,66.04Q148.032,66.04,149.436,64.78Q150.84,63.52,151.848,61.504Q152.856,59.488,153.432,57.256L155.736,41.2Q155.808,37.888,154.476,35.8Q153.144,33.712,150.768,33.712Q148.536,33.712,146.88,35.872Q145.224,38.032,144.144,41.632Q143.064,45.232,142.488,49.552ZM182.232,69.928Q180.072,76.048,178.164,79.792Q176.256,83.536,173.808,85.228Q171.36,86.92,167.544,86.92Q165.96,86.92,164.376,86.668Q162.792,86.416,160.992,85.768L162,79.576Q163.296,79.936,164.52,80.188Q165.744,80.44,167.04,80.44Q169.128,80.44,170.892,78.604Q172.656,76.768,173.664,73.888L168.912,27.88L176.04,27.88L177.984,54.952Q178.128,57.112,178.236,59.272Q178.344,61.432,178.416,63.592Q179.136,61.432,179.82,59.272Q180.504,57.112,181.224,54.952L190.008,27.88L197.208,27.88L182.232,69.928ZM223.128,59.92Q221.4,65.896,217.584,69.208Q213.768,72.52,208.584,72.52Q203.112,72.52,200.52,69.532Q197.928,66.544,197.46,61.36Q196.992,56.176,197.784,49.552Q198.648,42.928,200.556,37.888Q202.464,32.848,205.848,30.004Q209.232,27.16,214.272,27.16Q219.528,27.16,222.12,30.076Q224.712,32.992,225.18,38.464Q225.648,43.936,224.568,51.64L204.408,51.64Q203.976,55.384,204.048,58.66Q204.12,61.936,205.272,63.988Q206.424,66.04,209.232,66.04Q214.416,66.04,216.72,58.984L223.128,59.92ZM213.696,33.64Q210.6,33.64,208.584,36.736Q206.568,39.832,205.344,45.736L218.088,45.736Q218.376,42.28,218.16,39.544Q217.944,36.808,216.9,35.224Q215.856,33.64,213.696,33.64ZM234.504,71.8L227.664,71.8L233.856,27.664L240.696,27.664L239.904,33.208Q241.992,30.04,244.872,28.672Q247.752,27.304,250.92,27.304L249.984,34.432Q246.024,33.928,242.784,36.412Q239.544,38.896,238.392,44.296L234.504,71.8Z" fill="#3D3D3D" fill-opacity="1"/></g></svg>