<svg xmlns="http://www.w3.org/2000/svg" xmlns:xlink="http://www.w3.org/1999/xlink" fill="none" version="1.1" width="16" height="16" viewBox="0 0 16 16"><defs><clipPath id="master_svg0_208_4960"><rect x="0" y="0" width="16" height="16" rx="0"/></clipPath></defs><g clip-path="url(#master_svg0_208_4960)"><g><path d="M12.52240498046875,4.015191650390625L8.771204980468749,4.015191650390625C8.45988498046875,4.014571650390625,8.15864498046875,3.9047216503906252,7.92000498046875,3.704791650390625L7.00000498046875,2.931991650390625C6.60219498046875,2.598611650390625,6.09984498046875,2.415682315390625,5.58080498046875,2.415191650390625L4.06080498046875,2.415191650390625C2.84417098046875,2.417835470390625,1.85892439046875,3.404155650390625,1.85760498046875,4.6207916503906254L1.85760498046875,11.383991650390625C1.85892761046875,12.601591650390626,2.84563398046875,13.588291650390625,4.0632049804687504,13.589591650390625L12.52240498046875,13.589591650390625C13.73970498046875,13.587791650390624,14.72590498046875,12.601291650390625,14.72720498046875,11.383991650390625L14.72720498046875,6.220791650390625C14.72590498046875,5.0035316503906255,13.73970498046875,4.0169516503906255,12.52240498046875,4.015191650390625ZM13.84720498046875,11.383991650390625C13.84680498046875,12.115601650390625,13.25400498046875,12.708691650390625,12.52240498046875,12.709591650390625L4.0632049804687504,12.709591650390625C3.3312749804687503,12.709191650390625,2.7380459804687503,12.115921650390625,2.73760498046875,11.383991650390625L2.73760498046875,4.6207916503906254C2.7380459804687503,3.8888616503906253,3.3312749804687503,3.2956326503906253,4.0632049804687504,3.295191650390625L5.58320498046875,3.295191650390625C5.89510498046875,3.295302650390625,6.19700498046875,3.405189650390625,6.43600498046875,3.605591650390625L7.35520498046875,4.3783916503906255C7.75277498046875,4.711651650390625,8.25483498046875,4.894581650390625,8.77360498046875,4.895191650390625L12.52480498046875,4.895191650390625C13.25640498046875,4.896071650390625,13.84920498046875,5.489181650390625,13.84960498046875,6.220791650390625L13.84720498046875,11.383991650390625Z" fill="#231F20" fill-opacity="1"/></g><g><path d="M10.18962021484375,8.451195605468751L8.68642021484375,8.451195605468751L8.68642021484375,6.94799560546875C8.68642021484375,6.70499060546875,8.48943021484375,6.50799560546875,8.24642021484375,6.50799560546875C8.00341021484375,6.50799560546875,7.80642021484375,6.70499060546875,7.80642021484375,6.94799560546875L7.80642021484375,8.451195605468751L6.30322021484375,8.451195605468751C6.06021421484375,8.451195605468751,5.86322021484375,8.64819560546875,5.86322021484375,8.89119560546875C5.86322021484375,9.13420560546875,6.06021421484375,9.33119560546875,6.30322021484375,9.33119560546875L7.80642021484375,9.33119560546875L7.80642021484375,10.83439560546875C7.80642021484375,11.077405605468751,8.00341021484375,11.27439560546875,8.24642021484375,11.27439560546875C8.48942021484375,11.27439560546875,8.68642021484375,11.077405605468751,8.68642021484375,10.83439560546875L8.68642021484375,9.33119560546875L10.18962021484375,9.33119560546875C10.43262021484375,9.33119560546875,10.62962021484375,9.13419560546875,10.62962021484375,8.89119560546875C10.62962021484375,8.64818560546875,10.43262021484375,8.451195605468751,10.18962021484375,8.451195605468751Z" fill="#231F20" fill-opacity="1"/></g></g></svg>