<svg xmlns="http://www.w3.org/2000/svg" xmlns:xlink="http://www.w3.org/1999/xlink" fill="none"
  version="1.1" width="32" height="32" viewBox="0 0 32 32">
  <defs>
    <clipPath id="master_svg0_211_4953">
      <rect x="0" y="0" width="32" height="32" rx="0" />
    </clipPath>
  </defs>
  <g clip-path="url(#master_svg0_211_4953)">
    <g>
      <path
        d="M6.8249604541015625,2.89382C5.337470454101562,3.93444,4.046850454101563,5.21568,2.9874804541015627,6.70005C0.8593694541015625,9.67816,-0.1906245458984375,13.3219,0.0312488541015625,16.9562C0.0781236541015625,17.7406,0.7531194541015624,18.3375,1.5374904541015626,18.2906C2.3218604541015626,18.2437,2.9187304541015626,17.5687,2.8718604541015624,16.7844C2.4937304541015624,10.5625,6.596840454101563,4.88756,12.631190454101562,3.28757C17.256190454101564,2.06258,22.121790454101564,3.44069,25.409190454101562,6.80943L23.190490454101564,8.00317L30.087290454101563,12.2656L30.334190454101563,4.16257L27.99979045410156,5.41881C26.17489045410156,3.35007,23.849890454101562,1.7907,21.224890454101562,0.878209C18.215490454101563,-0.16241,14.993690454101563,-0.281159,11.903090454101562,0.537586C10.071790454101562,1.02196,8.362450454101563,1.8157,6.8249604541015625,2.89382ZM1.6656104541015626,27.8374L3.9999804541015624,26.5843C5.824970454101562,28.6531,8.149950454101562,30.2124,10.774890454101563,31.1218C13.784290454101562,32.1624,17.006190454101564,32.2812,20.096790454101562,31.4624C21.29989045410156,31.1437,22.449890454101563,30.6937,23.534290454101562,30.1155C24.099890454101562,29.8155,24.646690454101563,29.4781,25.17489045410156,29.1093C26.662390454101562,28.0687,27.949890454101563,26.7906,29.009190454101564,25.3093C31.137290454101564,22.3343,32.190490454101564,18.6937,31.971690454101562,15.0625C31.92479045410156,14.2781,31.24979045410156,13.6813,30.465490454101563,13.7281C29.68109045410156,13.775,29.084190454101563,14.45,29.131090454101564,15.2344C29.49979045410156,21.4437,25.393590454101563,27.1124,19.36869045410156,28.7124C14.743690454101563,29.9374,9.878070454101563,28.5593,6.590590454101562,25.1906L8.809320454101563,23.9968L1.9124904541015626,19.7344L1.6656104541015626,27.8374Z"
        fill="#3D3D3D" fill-opacity="1" />
    </g>
  </g>
</svg>