<svg xmlns="http://www.w3.org/2000/svg" xmlns:xlink="http://www.w3.org/1999/xlink" fill="none" version="1.1" width="16" height="16" viewBox="0 0 16 16"><defs><clipPath id="master_svg0_211_4957"><rect x="0" y="0" width="16" height="16" rx="0"/></clipPath></defs><g clip-path="url(#master_svg0_211_4957)"><g><path d="M1.9520029033203126,4.100006103515625C1.7509739033203124,4.100162029515625,1.5587569033203126,4.182540903515625,1.4200039033203125,4.328006103515625C1.1254001033203125,4.637045103515625,1.1254001033203125,5.122966103515625,1.4200039033203125,5.432006103515625L7.468000903320313,11.712006103515625C7.756830903320313,12.017616103515625,8.243170903320312,12.017616103515625,8.532000903320313,11.712006103515625C8.826600903320312,11.402966103515624,8.826600903320312,10.917046103515625,8.532000903320313,10.608006103515624L2.4840009033203128,4.328006103515625C2.345250903320313,4.182540403515625,2.1530319033203122,4.100161552515625,1.9520029033203126,4.100006103515625Z" fill="#4C4C4C" fill-opacity="1"/></g><g><path d="M14.048005053710938,4.100006103515625C13.846975053710938,4.100162506515625,13.654765053710937,4.182541403515625,13.516005053710938,4.328006103515625L7.468007053710937,10.608006103515624C7.173404253710937,10.917046103515625,7.173404253710937,11.402966103515624,7.468007053710937,11.712006103515625C7.756839053710937,12.017616103515625,8.243175053710937,12.017616103515625,8.532005053710938,11.712006103515625L14.580005053710938,5.432006103515625C14.874605053710937,5.122966103515625,14.874605053710937,4.637044103515625,14.580005053710938,4.328006103515625C14.441255053710938,4.182540403515625,14.249035053710937,4.100162029515625,14.048005053710938,4.100006103515625Z" fill="#4C4C4C" fill-opacity="1"/></g></g></svg>