<svg xmlns="http://www.w3.org/2000/svg" xmlns:xlink="http://www.w3.org/1999/xlink" fill="none" version="1.1" width="16" height="16" viewBox="0 0 16 16"><defs><clipPath id="master_svg0_81_558"><rect x="0" y="0" width="16" height="16" rx="0"/></clipPath></defs><g clip-path="url(#master_svg0_81_558)"><g><path d="M7.975,3.8C8.1,4.225,8.5,4.5,8.925,4.5L12.975,4.5C12.975,3.95,12.525,3.5,11.975,3.5L7.875,3.5L7.975,3.8ZM7.575,2.5L11.975,2.5C13.075,2.5,13.975,3.4,13.975,4.5L13.975,4.9C14.45,5.275,14.775,5.85,14.775,6.5L14.775,12.5C14.775,13.6,13.875,14.5,12.775,14.5L3.25,14.5C2.15,14.5,1.25,13.6,1.25,12.5L1.25,3.5C1.25,2.4,2.15,1.5,3.25,1.5L5.825,1.5C6.55,1.5,7.225,1.9,7.575,2.5ZM5.825,2.5L3.25,2.5C2.7,2.5,2.25,2.95,2.25,3.5L2.25,12.5C2.25,13.05,2.7,13.5,3.25,13.5L12.75,13.5C13.3,13.5,13.75,13.05,13.75,12.5L13.75,6.5C13.75,5.95,13.3,5.5,12.75,5.5L8.975,5.5C8.1,5.5,7.325,4.925,7.075,4.1L6.775,3.2C6.65,2.775,6.275,2.5,5.825,2.5ZM4.25,11L8.25,11C8.525,11,8.75,11.225,8.75,11.5C8.75,11.775,8.525,12,8.25,12L4.25,12C3.975,12,3.75,11.775,3.75,11.5C3.75,11.225,3.975,11,4.25,11Z" fill="#3D3D3D" fill-opacity="1"/></g></g></svg>