<svg xmlns="http://www.w3.org/2000/svg" xmlns:xlink="http://www.w3.org/1999/xlink" fill="none" version="1.1" width="16" height="16" viewBox="0 0 16 16"><defs><clipPath id="master_svg0_208_4965"><rect x="0" y="0" width="16" height="16" rx="0"/></clipPath></defs><g clip-path="url(#master_svg0_208_4965)"><g><path d="M12.575209609375,3.73494196234375C12.853499609375,3.75685330234375,13.067849609375,3.98965640234375,13.066649609375,4.26880840234375L13.065049609375,4.30880840234375L12.303739609375,13.95063740234375C12.261549609375,14.48493740234375,11.829429609375,14.90503740234375,11.294139609375,14.93203740234375L11.240539609375,14.93333740234375L4.759479609375,14.93333740234375C4.223429609375,14.93333740234375,3.7706266093750003,14.53563740234375,3.701610609375,14.00403740234375L3.696277609375,13.95063740234375L2.934943919375,4.30854140234375C2.912977409375,4.02299040234375,3.120458609375,3.77106710234375,3.4049256093749998,3.73789143234375C3.689391609375,3.70471570234375,3.949279609375,3.90213240234375,3.993609609375,4.18507440234375L3.998409609375,4.22480840234375L4.759479609375,13.86663740234375L11.240539609375,13.86663740234375L12.001609609375,4.22480840234375C12.023519609375,3.94651540234375,12.256329609375,3.73220157234375,12.535479609375,3.73334193229375L12.575479609375,3.73494196234375L12.575209609375,3.73494196234375Z" fill="#444444" fill-opacity="1"/></g><g><path d="M13.86669521484375,3.199987173083125C14.15439521484375,3.198700429453125,14.39119521484375,3.425816689453125,14.40199521484375,3.7133046894531248C14.41279521484375,4.000791689453125,14.19359521484375,4.245031689453125,13.90669521484375,4.265321689453125L13.86669521484375,4.266651689453125L2.13332421484375,4.266651689453125C1.84563621484375,4.267941689453125,1.60877181484375,4.040825689453125,1.59797739984375,3.753336689453125C1.58718311484375,3.465847689453125,1.8063492148437499,3.221608389453125,2.09332421484375,3.201320649453125L2.13332421484375,3.199987173083125L13.86669521484375,3.199987173083125Z" fill="#444444" fill-opacity="1"/></g><g><path d="M9.333350908203126,1.066680908203125C10.193680908203124,1.066649436903125,10.900020908203125,1.746954908203125,10.932280908203126,2.606680908203125L10.933350908203124,2.666680908203125L10.933350908203124,3.733350908203125C10.934640908203125,4.021040908203124,10.707520908203126,4.257910908203125,10.420030908203124,4.268700908203125C10.132540908203126,4.279500908203125,9.888300908203124,4.060330908203126,9.868010908203125,3.773350908203125L9.866680908203126,3.733350908203125L9.866680908203126,2.666680908203125C9.866770908203126,2.387580908203125,9.651660908203125,2.155610908203125,9.373350908203125,2.134680908203125L9.333350908203126,2.1333509082031252L6.666680908203125,2.1333509082031252C6.387580908203125,2.133260908203125,6.1556109082031245,2.348370908203125,6.134680908203125,2.626680908203125L6.133350908203125,2.666680908203125L6.133350908203125,3.733350908203125C6.134640908203125,4.021040908203124,5.907519908203125,4.2579009082031245,5.620030908203125,4.268690908203125C5.332541908203125,4.279490908203125,5.088302108203125,4.060320908203125,5.068014148203125,3.773350908203125L5.066680908203125,3.733350908203125L5.066680908203125,2.666680908203125C5.066649436903125,1.806348908203125,5.746954908203125,1.100009308203125,6.606680908203125,1.067747588203125L6.666680908203125,1.066680908203125L9.333350908203126,1.066680908203125Z" fill="#444444" fill-opacity="1"/></g><g><path d="M10.666673505859375,11.73333740234375L10.666673505859375,12.26667140234375C10.666673505859375,12.56122340234375,10.427893505859375,12.80000740234375,10.133343505859376,12.80000740234375L5.866676505859375,12.80000740234375C5.572124505859375,12.80000740234375,5.333343505859375,12.56122440234375,5.333343505859375,12.26667240234375L5.333343505859375,11.73333835601775L10.666673505859375,11.73333740234375Z" fill="#00B386" fill-opacity="1"/></g></g></svg>