<svg xmlns="http://www.w3.org/2000/svg" xmlns:xlink="http://www.w3.org/1999/xlink" fill="none" version="1.1" width="16" height="16" viewBox="0 0 16 16"><defs><clipPath id="master_svg0_211_4974"><rect x="0" y="0" width="16" height="16" rx="0"/></clipPath></defs><g clip-path="url(#master_svg0_211_4974)"><g><path d="M8.55293,6L9.518930000000001,6.2588L7.966,12.054400000000001L7,11.7956L8.55293,6Z" fill="#758C99" fill-opacity="1"/></g><g><path d="M2,1L2,15L14,15L14,1L2,1ZM1,0L15,0L15,16L1,16L1,0Z" fill="#758C99" fill-opacity="1"/></g><g><path d="M2,3L14,3L14,4L2,4L2,3ZM4.41427,9.12133L5.8284,7.70707L5.12133,7L3.3536,8.76773L3,9.12133L5.12133,11.24267L5.8284,10.535599999999999L4.41427,9.12133ZM11.8284,9.12133L10.41427,10.535599999999999L11.12133,11.24267L12.8891,9.47493L13.2427,9.12133L11.12133,7L10.41427,7.70707L11.8284,9.12133Z" fill="#758C99" fill-opacity="1"/></g></g></svg>