<svg xmlns="http://www.w3.org/2000/svg" xmlns:xlink="http://www.w3.org/1999/xlink" fill="none" version="1.1" width="32" height="32" viewBox="0 0 32 32"><defs><clipPath id="master_svg0_211_4966"><rect x="0" y="0" width="32" height="32" rx="0"/></clipPath></defs><g clip-path="url(#master_svg0_211_4966)"><g><path d="M22.8884337890625,9.7178955078125L9.1115637890625,9.7178955078125C8.7736047890625,9.7178955078125,8.4996337890625,9.9918665078125,8.4996337890625,10.3298255078125C8.4996337890625,10.6677845078125,8.7736047890625,10.9417555078125,9.1115637890625,10.9417555078125L22.8884337890625,10.9417555078125C23.2263337890625,10.9417555078125,23.500333789062502,10.6677845078125,23.500333789062502,10.3298255078125C23.500333789062502,9.9918665078125,23.2263337890625,9.7178955078125,22.8884337890625,9.7178955078125ZM22.8884337890625,16.0392955078125L9.1115637890625,16.0392955078125C8.7736047890625,16.0392955078125,8.4996337890625,16.3132655078125,8.4996337890625,16.651225507812498C8.4996337890625,16.9891855078125,8.7736047890625,17.2631555078125,9.1115637890625,17.2631555078125L22.8884337890625,17.2631555078125C23.2263337890625,17.2631555078125,23.500333789062502,16.9891855078125,23.500333789062502,16.651225507812498C23.500333789062502,16.3132655078125,23.2263337890625,16.0392955078125,22.8884337890625,16.0392955078125ZM22.8884337890625,22.3606955078125L9.1115637890625,22.3606955078125C8.7736047890625,22.3606955078125,8.4996337890625,22.634695507812502,8.4996337890625,22.9725955078125C8.4996337890625,23.3105955078125,8.7736037890625,23.5845955078125,9.1115637890625,23.5845955078125L22.8884337890625,23.5845955078125C23.2263337890625,23.5845955078125,23.500333789062502,23.3105955078125,23.500333789062502,22.9725955078125C23.500333789062502,22.634695507812502,23.2263337890625,22.3606955078125,22.8884337890625,22.3606955078125Z" fill="#3D3D3D" fill-opacity="1"/></g></g></svg>