<svg xmlns="http://www.w3.org/2000/svg" xmlns:xlink="http://www.w3.org/1999/xlink" fill="none" version="1.1" width="16" height="16" viewBox="0 0 16 16"><defs><clipPath id="master_svg0_211_4970"><rect x="0" y="0" width="16" height="16" rx="0"/></clipPath></defs><g clip-path="url(#master_svg0_211_4970)"><g><path d="M10.800003662109376,13.20000732421875C10.800003662109376,11.84000732421875,11.920003662109375,10.72000732421875,13.280003662109374,10.72000732421875C14.640003662109375,10.72000732421875,15.760003662109375,11.84000732421875,15.760003662109375,13.20000732421875C15.760003662109375,14.56000732421875,14.640003662109375,15.68000732421875,13.280003662109374,15.68000732421875C11.920003662109375,15.68000732421875,10.800003662109376,14.56000732421875,10.800003662109376,13.20000732421875ZM12.160003662109375,13.20000732421875C12.160003662109375,13.84000732421875,12.640003662109375,14.32000732421875,13.280003662109374,14.32000732421875C13.920003662109375,14.32000732421875,14.400003662109375,13.84000732421875,14.400003662109375,13.20000732421875C14.400003662109375,12.56000732421875,13.920003662109375,12.08000732421875,13.280003662109374,12.08000732421875C12.640003662109375,12.08000732421875,12.160003662109375,12.56000732421875,12.160003662109375,13.20000732421875ZM0.880003662109375,13.84000732421875L10.800003662109376,13.84000732421875C11.120003662109376,13.84000732421875,11.360003662109374,13.60000732421875,11.360003662109374,13.28000732421875C11.360003662109374,12.96000732421875,11.120003662109376,12.72000732421875,10.800003662109376,12.72000732421875L0.880003662109375,12.72000732421875C0.560003662109375,12.72000732421875,0.32000366210937503,12.96000732421875,0.32000366210937503,13.28000732421875C0.24000366210937502,13.60000732421875,0.560003662109375,13.84000732421875,0.880003662109375,13.84000732421875ZM2.720003662109375,5.28000732421875C1.360003662109375,5.28000732421875,0.24000366210937502,4.16000732421875,0.24000366210937502,2.80000732421875C0.24000366210937502,1.44000732421875,1.360003662109375,0.32000732421875,2.720003662109375,0.32000732421875C4.080003662109375,0.32000732421875,5.200003662109375,1.44000732421875,5.200003662109375,2.80000732421875C5.200003662109375,4.16000732421875,4.080003662109375,5.28000732421875,2.720003662109375,5.28000732421875ZM2.720003662109375,1.68000732421875C2.160003662109375,1.68000732421875,1.600003662109375,2.24000732421875,1.600003662109375,2.80000732421875C1.600003662109375,3.36000732421875,2.080003662109375,3.92000732421875,2.720003662109375,3.92000732421875C3.360003662109375,3.92000732421875,3.840003662109375,3.44000732421875,3.840003662109375,2.80000732421875C3.840003662109375,2.16000732421875,3.360003662109375,1.68000732421875,2.720003662109375,1.68000732421875ZM15.120003662109376,3.52000732421875L5.280003662109375,3.52000732421875C4.960003662109375,3.52000732421875,4.720003662109375,3.28000732421875,4.720003662109375,2.96000732421875C4.720003662109375,2.64000732421875,4.960003662109375,2.40000732421875,5.280003662109375,2.40000732421875L15.200003662109374,2.40000732421875C15.520003662109374,2.40000732421875,15.760003662109375,2.64000732421875,15.760003662109375,2.96000732421875C15.760003662109375,3.28000732421875,15.440003662109374,3.52000732421875,15.120003662109376,3.52000732421875ZM8.480003662109375,10.96000732421875C6.800003662109375,10.96000732421875,5.520003662109375,9.60000732421875,5.520003662109375,8.00000732421875C5.520003662109375,6.40000732421875,6.880003662109375,5.04000732421875,8.480003662109375,5.04000732421875C10.080003662109375,5.04000732421875,11.440003662109374,6.40000732421875,11.440003662109374,8.00000732421875C11.440003662109374,9.60000732421875,10.160003662109375,10.96000732421875,8.480003662109375,10.96000732421875ZM8.480003662109375,6.64000732421875C7.760003662109375,6.64000732421875,7.120003662109375,7.28000732421875,7.120003662109375,8.00000732421875C7.120003662109375,8.72000732421875,7.760003662109375,9.36000732421875,8.480003662109375,9.36000732421875C9.200003662109374,9.36000732421875,9.840003662109375,8.72000732421875,9.840003662109375,8.00000732421875C9.840003662109375,7.28000732421875,9.280003662109374,6.64000732421875,8.480003662109375,6.64000732421875ZM15.280003662109374,8.72000732421875L11.040003662109376,8.72000732421875C10.720003662109375,8.72000732421875,10.480003662109375,8.48000732421875,10.480003662109375,8.16000732421875C10.480003662109375,7.84000732421875,10.720003662109375,7.60000732421875,11.040003662109376,7.60000732421875L15.280003662109374,7.60000732421875C15.600003662109375,7.60000732421875,15.840003662109375,7.84000732421875,15.840003662109375,8.16000732421875C15.840003662109375,8.48000732421875,15.600003662109375,8.72000732421875,15.280003662109374,8.72000732421875ZM6.080003662109375,8.72000732421875L0.720003662109375,8.72000732421875C0.400003662109375,8.72000732421875,0.160003662109375,8.48000732421875,0.160003662109375,8.16000732421875C0.160003662109375,7.84000732421875,0.400003662109375,7.60000732421875,0.720003662109375,7.60000732421875L6.080003662109375,7.60000732421875C6.400003662109375,7.60000732421875,6.640003662109375,7.84000732421875,6.640003662109375,8.16000732421875C6.640003662109375,8.48000732421875,6.400003662109375,8.72000732421875,6.080003662109375,8.72000732421875Z" fill="#3D3D3D" fill-opacity="1"/></g></g></svg>