<svg xmlns="http://www.w3.org/2000/svg" xmlns:xlink="http://www.w3.org/1999/xlink" fill="none" version="1.1" width="16" height="16" viewBox="0 0 16 16"><defs><clipPath id="master_svg0_208_4951"><rect x="0" y="0" width="16" height="16" rx="0"/></clipPath></defs><g clip-path="url(#master_svg0_208_4951)"><g><path d="M8.9375,13.97188670703125Q8.9375,14.02251770703125,8.92759,14.07217570703125Q8.91768,14.12183370703125,8.89825,14.16860970703125Q8.878816,14.21538670703125,8.850601,14.25748470703125Q8.822386999999999,14.29958270703125,8.786477,14.33538370703125Q8.750567,14.37118570703125,8.708341,14.39931470703125Q8.666115,14.42744270703125,8.619196,14.44681870703125Q8.572277,14.46619470703125,8.522468,14.47607470703125Q8.47266,14.48594470703125,8.421875,14.48594470703125Q8.37109,14.48594470703125,8.321282,14.47607470703125Q8.271473,14.46619470703125,8.224554,14.44681870703125Q8.177635,14.42744270703125,8.135409,14.39931470703125Q8.093183,14.37118570703125,8.057273,14.33538370703125Q8.021363,14.29958270703125,7.9931485,14.25748470703125Q7.964934,14.21538670703125,7.9454996,14.16860970703125Q7.9260652,14.12183370703125,7.91615759,14.07217570703125Q7.90625,14.02251770703125,7.90625,13.97188670703125Q7.90625,13.92125670703125,7.91615759,13.87159870703125Q7.9260652,13.82194070703125,7.9454996,13.77516370703125Q7.964934,13.72838670703125,7.9931485,13.68628970703125Q8.021363,13.64419170703125,8.057273,13.60838970703125Q8.093183,13.57258870703125,8.135409,13.54445980703125Q8.177635,13.51633090703125,8.224554,13.49695540703125Q8.271473,13.47757980703125,8.321282,13.46770226703125Q8.37109,13.45782470703125,8.421875,13.45782470703125Q8.47266,13.45782470703125,8.522468,13.46770226703125Q8.572277,13.47757980703125,8.619196,13.49695540703125Q8.666115,13.51633090703125,8.708341,13.54445980703125Q8.750567,13.57258870703125,8.786477,13.60838970703125Q8.822386999999999,13.64419170703125,8.850601,13.68628970703125Q8.878816,13.72838670703125,8.89825,13.77516370703125Q8.91768,13.82194070703125,8.92759,13.87159870703125Q8.9375,13.92125670703125,8.9375,13.97188670703125Z" fill="#4D4D4D" fill-opacity="1"/></g><g><path d="M13.4999869140625,6.07344470703125L13.4999869140625,6.00470470703125C13.4999869140625,4.90001470703125,12.6046869140625,4.00470470703125,11.4999869140625,4.00470470703125L7.9968969140625,4.00470470703125L6.7078369140625,2.27188770703125C6.5922069140625,2.07032490703125,6.4265869140625,2.01876234703125,6.2812769140625,2.02188730703125L6.2797069140625,2.02032470703125L3.0015869140625,2.02032470703125C1.8968999140625,2.02032470703125,1.0015869140625,2.91563770703125,1.0015869140625,4.02032470703125L1.0015869140625,12.49062470703125C1.0015869140625,13.59532470703125,1.8968999140625,14.49062470703125,3.0015869140625,14.49062470703125L6.3593969140625,14.49062470703125L6.3593969140625,14.48442470703125C6.6437769140625,14.48442470703125,6.8750269140625,14.25472470703125,6.8750269140625,13.97032470703125C6.8750269140625,13.68592470703125,6.6437769140625,13.45622470703125,6.3593969140625,13.45622470703125C6.3437769140625,13.45622470703125,6.3265869140625,13.45782470703125,6.3109569140625,13.45782470703125L3.4828369140625,13.45782470703125C2.9312769140625,13.45782470703125,2.4828369140625,13.00942470703125,2.4828369140625,12.45782470703125C2.4828369140625,12.37192470703125,2.4937769140625,12.28752470703125,2.5140869140625,12.20782470703125L3.6562769140625,7.79532470703125L3.6593969140625,7.79376470703125C3.7640869140625,7.35469470703125,4.1578369140625,7.02813470703125,4.6297069140625,7.02657470703125L4.6328369140625,7.02501470703125L12.9484869140625,7.02501470703125C12.9687869140625,7.02344470703125,12.9874869140625,7.02344470703125,13.0078869140625,7.02344470703125C13.5593869140625,7.02344470703125,14.0078869140625,7.47188470703125,14.0078869140625,8.02344470703125C14.0078869140625,8.12813470703125,13.9906869140625,8.23126470703125,13.9609869140625,8.32657470703125L13.9609869140625,8.32813470703125L12.8281869140625,12.70002470703125C12.8265869140625,12.70942470703125,12.8234869140625,12.71722470703125,12.8218869140625,12.72652470703125L12.7984869140625,12.81722470703125L12.7906869140625,12.82342470703125C12.7671869140625,12.88442470703125,12.7374869140625,12.94062470703125,12.7046869140625,12.99532470703125L12.6843869140625,12.99532470703125C12.6437869140625,13.06872470703125,12.5937869140625,13.13752470703125,12.5359869140625,13.19692470703125C12.3577869140625,13.36252470703125,12.1187869140625,13.46412470703125,11.8577869140625,13.46412470703125C11.8374869140625,13.46412470703125,11.8171869140625,13.46412470703125,11.7984869140625,13.46252470703125L10.5359569140625,13.46252470703125C10.5203369140625,13.46092470703125,10.5031469140625,13.46092470703125,10.4875269140625,13.46092470703125C10.2031469140625,13.46092470703125,9.9718969140625,13.69062470703125,9.9718969140625,13.97502470703125C9.9718969140625,14.25942470703125,10.2031469140625,14.48912470703125,10.4875269140625,14.48912470703125L10.4875269140625,14.49222470703125L11.9218869140625,14.49222470703125L11.9296869140625,14.48592470703125C12.8531869140625,14.48282470703125,13.6281869140625,13.85472470703125,13.8546869140625,13.00162470703125L13.8578869140625,12.99842470703125L14.9171869140625,8.53751470703125C14.9624869140625,8.36876470703125,14.9874869140625,8.19220470703125,14.9874869140625,8.00938470703125C14.9859869140625,7.07970470703125,14.3546869140625,6.29845470703125,13.4999869140625,6.07344470703125ZM4.5703369140625,5.99688470703125C3.6015869140625,5.99688470703125,2.7937769140624997,6.68751470703125,2.6093969140624997,7.60157470703125L2.6015869140625,7.60782470703125L2.0078369140625,10.11251470703125L2.0078369140625,4.01563470703125C2.0078369140625,3.46407470703125,2.4562769140625003,3.01563670703125,3.0078369140625,3.01563670703125L5.9843969140625,3.01563670703125L7.2765869140625,4.75469470703125C7.3797169140625,4.93282470703125,7.5765869140625,5.02344470703125,7.7687769140625,5.00157470703125L11.4952869140625,5.00157470703125C12.0453869140625,5.00157470703125,12.4921869140625,5.44688470703125,12.4952869140625,5.99688470703125L4.5703369140625,5.99688470703125Z" fill="#4D4D4D" fill-opacity="1"/></g></g></svg>